solid OpenSCAD_Model
  facet normal 0 0 -1
    outer loop
      vertex 0.2 10.600000000000001 0
      vertex 3 12.100000000000001 0
      vertex 13.399999999999999 12.100000000000001 0
    endloop
  endfacet
  facet normal 0 -1 0
    outer loop
      vertex 0.2 10.600000000000001 0
      vertex 16.4 10.600000000000001 1
      vertex 0.2 10.600000000000001 1
    endloop
  endfacet
  facet normal 0 0 -1
    outer loop
      vertex 0.2 10.600000000000001 0
      vertex 0.2 31.8 0
      vertex 3 12.100000000000001 0
    endloop
  endfacet
  facet normal 0 0 -1
    outer loop
      vertex 0.2 31.8 0
      vertex 3 14.600000000000001 0
      vertex 3 12.100000000000001 0
    endloop
  endfacet
  facet normal -1 0 0
    outer loop
      vertex 0.2 10.600000000000001 0
      vertex 0.2 10.600000000000001 1
      vertex 0.2 31.8 1
    endloop
  endfacet
  facet normal 0 0 -1
    outer loop
      vertex 0.2 10.600000000000001 0
      vertex 13.399999999999999 12.100000000000001 0
      vertex 35.2 10.600000000000001 0
    endloop
  endfacet
  facet normal 0 0 -1
    outer loop
      vertex 13.399999999999999 12.100000000000001 0
      vertex 13.399999999999999 14.600000000000001 0
      vertex 20.2 13.600000000000001 0
    endloop
  endfacet
  facet normal 0 -1 0
    outer loop
      vertex 0.2 10.600000000000001 0
      vertex 17.2 10.600000000000001 1
      vertex 16.4 10.600000000000001 1
    endloop
  endfacet
  facet normal 0 -1 0
    outer loop
      vertex 0.2 10.600000000000001 0
      vertex 35.2 10.600000000000001 1
      vertex 17.2 10.600000000000001 1
    endloop
  endfacet
  facet normal 0 0 -1
    outer loop
      vertex 20.2 28.5 0
      vertex 13.399999999999999 14.600000000000001 0
      vertex 3 14.600000000000001 0
    endloop
  endfacet
  facet normal 0 0 1
    outer loop
      vertex 0.2 10.600000000000001 1
      vertex 3 12.100000000000001 1
      vertex 3 14.600000000000001 1
    endloop
  endfacet
  facet normal 0 0 1
    outer loop
      vertex 0.2 10.600000000000001 1
      vertex 13.399999999999999 12.100000000000001 1
      vertex 3 12.100000000000001 1
    endloop
  endfacet
  facet normal 0 0 1
    outer loop
      vertex 0.2 10.600000000000001 1
      vertex 3 14.600000000000001 1
      vertex 0.2 31.8 1
    endloop
  endfacet
  facet normal 0 0 1
    outer loop
      vertex 0.2 31.8 1
      vertex 3 14.600000000000001 1
      vertex 13.399999999999999 14.600000000000001 1
    endloop
  endfacet
  facet normal 0 0 1
    outer loop
      vertex 0.2 10.600000000000001 1
      vertex 16.4 10.600000000000001 1
      vertex 13.399999999999999 12.100000000000001 1
    endloop
  endfacet
  facet normal 0 0 1
    outer loop
      vertex 16.4 10.600000000000001 1
      vertex 13.399999999999999 14.600000000000001 1
      vertex 13.399999999999999 12.100000000000001 1
    endloop
  endfacet
  facet normal 0 0 1
    outer loop
      vertex 16.4 10.600000000000001 1
      vertex 16.4 31.8 1
      vertex 13.399999999999999 14.600000000000001 1
    endloop
  endfacet
  facet normal -1 0 0
    outer loop
      vertex 0.2 10.600000000000001 0
      vertex 0.2 31.8 1
      vertex 0.2 31.8 0
    endloop
  endfacet
  facet normal 0 0 -1
    outer loop
      vertex 0.2 31.8 0
      vertex 20.2 28.5 0
      vertex 3 14.600000000000001 0
    endloop
  endfacet
  facet normal 0 1 0
    outer loop
      vertex 0.2 31.8 0
      vertex 0.2 31.8 1
      vertex 35.2 31.8 0
    endloop
  endfacet
  facet normal 0 1 0
    outer loop
      vertex 0.2 31.8 1
      vertex 16.4 31.8 1
      vertex 35.2 31.8 0
    endloop
  endfacet
  facet normal 0 0 1
    outer loop
      vertex 0.2 31.8 1
      vertex 13.399999999999999 14.600000000000001 1
      vertex 16.4 31.8 1
    endloop
  endfacet
  facet normal 0 0 -1
    outer loop
      vertex 35.2 10.600000000000001 0
      vertex 13.399999999999999 12.100000000000001 0
      vertex 20.2 13.600000000000001 0
    endloop
  endfacet
  facet normal 0 -1 0
    outer loop
      vertex 0.2 10.600000000000001 0
      vertex 35.2 10.600000000000001 0
      vertex 35.2 10.600000000000001 1
    endloop
  endfacet
  facet normal 0 0 -1
    outer loop
      vertex 13.399999999999999 14.600000000000001 0
      vertex 20.2 28.5 0
      vertex 20.2 13.600000000000001 0
    endloop
  endfacet
  facet normal 0 0 -1
    outer loop
      vertex 35.2 10.600000000000001 0
      vertex 20.2 13.600000000000001 0
      vertex 32.4 13.600000000000001 0
    endloop
  endfacet
  facet normal 0 0 -1
    outer loop
      vertex 35.2 10.600000000000001 0
      vertex 32.4 13.600000000000001 0
      vertex 32.4 28.5 0
    endloop
  endfacet
  facet normal 1 0 0
    outer loop
      vertex 35.2 10.600000000000001 0
      vertex 35.2 31.8 0
      vertex 35.2 10.600000000000001 1
    endloop
  endfacet
  facet normal 0 0 1
    outer loop
      vertex 17.2 10.600000000000001 1
      vertex 35.2 10.600000000000001 1
      vertex 20.2 13.600000000000001 1
    endloop
  endfacet
  facet normal 0 0 1
    outer loop
      vertex 17.2 10.600000000000001 1
      vertex 20.2 13.600000000000001 1
      vertex 20.2 28.5 1
    endloop
  endfacet
  facet normal 0 0 1
    outer loop
      vertex 35.2 10.600000000000001 1
      vertex 32.4 13.600000000000001 1
      vertex 20.2 13.600000000000001 1
    endloop
  endfacet
  facet normal 0 0 1
    outer loop
      vertex 35.2 10.600000000000001 1
      vertex 35.2 31.8 1
      vertex 32.4 13.600000000000001 1
    endloop
  endfacet
  facet normal 0 0 -1
    outer loop
      vertex 0.2 31.8 0
      vertex 35.2 31.8 0
      vertex 20.2 28.5 0
    endloop
  endfacet
  facet normal 0 1 0
    outer loop
      vertex 16.4 31.8 1
      vertex 17.2 31.8 1
      vertex 35.2 31.8 0
    endloop
  endfacet
  facet normal 0 0 -1
    outer loop
      vertex 35.2 10.600000000000001 0
      vertex 32.4 28.5 0
      vertex 35.2 31.8 0
    endloop
  endfacet
  facet normal 1 0 0
    outer loop
      vertex 35.2 10.600000000000001 1
      vertex 35.2 31.8 0
      vertex 35.2 31.8 1
    endloop
  endfacet
  facet normal 0 0 -1
    outer loop
      vertex 35.2 31.8 0
      vertex 32.4 28.5 0
      vertex 20.2 28.5 0
    endloop
  endfacet
  facet normal 0 1 0
    outer loop
      vertex 17.2 31.8 1
      vertex 35.2 31.8 1
      vertex 35.2 31.8 0
    endloop
  endfacet
  facet normal 0 0 1
    outer loop
      vertex 17.2 10.600000000000001 1
      vertex 20.2 28.5 1
      vertex 17.2 31.8 1
    endloop
  endfacet
  facet normal 0 0 1
    outer loop
      vertex 17.2 31.8 1
      vertex 20.2 28.5 1
      vertex 32.4 28.5 1
    endloop
  endfacet
  facet normal 0 0 1
    outer loop
      vertex 35.2 31.8 1
      vertex 32.4 28.5 1
      vertex 32.4 13.600000000000001 1
    endloop
  endfacet
  facet normal 0 0 1
    outer loop
      vertex 17.2 31.8 1
      vertex 32.4 28.5 1
      vertex 35.2 31.8 1
    endloop
  endfacet
  facet normal 0 -1 0
    outer loop
      vertex 16.4 10.600000000000001 1
      vertex 17.2 10.600000000000001 1
      vertex 17.2 10.600000000000001 2
    endloop
  endfacet
  facet normal 0 -1 0
    outer loop
      vertex 16.4 10.600000000000001 1
      vertex 17.2 10.600000000000001 2
      vertex 16.4 10.600000000000001 2
    endloop
  endfacet
  facet normal 1 0 0
    outer loop
      vertex 17.2 10.600000000000001 1
      vertex 17.2 31.8 1
      vertex 17.2 10.600000000000001 2
    endloop
  endfacet
  facet normal -1 0 0
    outer loop
      vertex 16.4 10.600000000000001 1
      vertex 16.4 10.600000000000001 2
      vertex 16.4 31.8 2
    endloop
  endfacet
  facet normal 0 0 1
    outer loop
      vertex 16.4 10.600000000000001 2
      vertex 17.2 10.600000000000001 2
      vertex 16.4 31.8 2
    endloop
  endfacet
  facet normal -1 0 0
    outer loop
      vertex 16.4 10.600000000000001 1
      vertex 16.4 31.8 2
      vertex 16.4 31.8 1
    endloop
  endfacet
  facet normal 1 0 0
    outer loop
      vertex 17.2 10.600000000000001 2
      vertex 17.2 31.8 1
      vertex 17.2 31.8 2
    endloop
  endfacet
  facet normal 0 0 1
    outer loop
      vertex 17.2 10.600000000000001 2
      vertex 17.2 31.8 2
      vertex 16.4 31.8 2
    endloop
  endfacet
  facet normal 0 1 0
    outer loop
      vertex 16.4 31.8 1
      vertex 16.4 31.8 2
      vertex 17.2 31.8 1
    endloop
  endfacet
  facet normal 0 1 0
    outer loop
      vertex 17.2 31.8 1
      vertex 16.4 31.8 2
      vertex 17.2 31.8 2
    endloop
  endfacet
  facet normal 0 1 0
    outer loop
      vertex 32.4 13.600000000000001 0
      vertex 20.2 13.600000000000001 0
      vertex 20.2 13.600000000000001 1
    endloop
  endfacet
  facet normal 1 0 0
    outer loop
      vertex 20.2 28.5 1
      vertex 20.2 13.600000000000001 1
      vertex 20.2 13.600000000000001 0
    endloop
  endfacet
  facet normal 0 1 0
    outer loop
      vertex 32.4 13.600000000000001 0
      vertex 20.2 13.600000000000001 1
      vertex 32.4 13.600000000000001 1
    endloop
  endfacet
  facet normal -1 0 0
    outer loop
      vertex 32.4 13.600000000000001 0
      vertex 32.4 13.600000000000001 1
      vertex 32.4 28.5 0
    endloop
  endfacet
  facet normal 1 0 0
    outer loop
      vertex 20.2 28.5 1
      vertex 20.2 13.600000000000001 0
      vertex 20.2 28.5 0
    endloop
  endfacet
  facet normal 0 -1 0
    outer loop
      vertex 20.2 28.5 0
      vertex 32.4 28.5 1
      vertex 20.2 28.5 1
    endloop
  endfacet
  facet normal -1 0 0
    outer loop
      vertex 32.4 28.5 0
      vertex 32.4 13.600000000000001 1
      vertex 32.4 28.5 1
    endloop
  endfacet
  facet normal 0 -1 0
    outer loop
      vertex 20.2 28.5 0
      vertex 32.4 28.5 0
      vertex 32.4 28.5 1
    endloop
  endfacet
  facet normal 1 0 0
    outer loop
      vertex 3 14.600000000000001 1
      vertex 3 12.100000000000001 0
      vertex 3 14.600000000000001 0
    endloop
  endfacet
  facet normal 0 1 0
    outer loop
      vertex 3 12.100000000000001 1
      vertex 13.399999999999999 12.100000000000001 0
      vertex 3 12.100000000000001 0
    endloop
  endfacet
  facet normal 1 0 0
    outer loop
      vertex 3 14.600000000000001 1
      vertex 3 12.100000000000001 1
      vertex 3 12.100000000000001 0
    endloop
  endfacet
  facet normal 0 -1 0
    outer loop
      vertex 13.399999999999999 14.600000000000001 1
      vertex 3 14.600000000000001 1
      vertex 3 14.600000000000001 0
    endloop
  endfacet
  facet normal 0 -1 0
    outer loop
      vertex 3 14.600000000000001 0
      vertex 13.399999999999999 14.600000000000001 0
      vertex 13.399999999999999 14.600000000000001 1
    endloop
  endfacet
  facet normal -1 0 0
    outer loop
      vertex 13.399999999999999 12.100000000000001 0
      vertex 13.399999999999999 12.100000000000001 1
      vertex 13.399999999999999 14.600000000000001 0
    endloop
  endfacet
  facet normal 0 1 0
    outer loop
      vertex 13.399999999999999 12.100000000000001 1
      vertex 13.399999999999999 12.100000000000001 0
      vertex 3 12.100000000000001 1
    endloop
  endfacet
  facet normal -1 0 0
    outer loop
      vertex 13.399999999999999 12.100000000000001 1
      vertex 13.399999999999999 14.600000000000001 1
      vertex 13.399999999999999 14.600000000000001 0
    endloop
  endfacet
endsolid OpenSCAD_Model
